<?xml version="1.0" encoding="utf-8"?>
<!-- Generator: Adobe Illustrator 23.0.0, SVG Export Plug-In . SVG Version: 6.00 Build 0)  -->
<svg version="1.1" id="Слой_1" xmlns="http://www.w3.org/2000/svg" xmlns:xlink="http://www.w3.org/1999/xlink" x="0px" y="0px"
	 width="108px" height="91.9px" viewBox="0 0 108 91.9" enable-background="new 0 0 108 91.9" xml:space="preserve">
<g>
	<g>
		<path fill="#F43737" d="M107.1,81.8L59.7,3.2C58.5,1.2,56.3,0,54,0c-2.3,0-4.5,1.2-5.7,3.2L1,81.8c-1.2,2-1.3,4.6-0.1,6.7
			c1.2,2.1,3.4,3.4,5.8,3.4h94.8c2.4,0,4.6-1.3,5.8-3.4C108.4,86.4,108.3,83.9,107.1,81.8z"/>
	</g>
</g>
<path fill="#FFFFFF" d="M54.1,27.2c2.7,0,5,1.5,5,4.3c0,8.3-1,20.2-1,28.6c0,2.2-2.4,3.1-4,3.1c-2.2,0-4.1-0.9-4.1-3.1
	c0-8.3-1-20.2-1-28.6C49,28.7,51.2,27.2,54.1,27.2z"/>
<path fill="#FFFFFF" d="M54.1,78.6c-3.1,0-5.4-2.5-5.4-5.4c0-2.9,2.3-5.4,5.4-5.4c2.9,0,5.3,2.4,5.3,5.4
	C59.4,76.1,57,78.6,54.1,78.6z"/>
</svg>
