<?xml version="1.0" encoding="utf-8"?>
<!-- Generator: Adobe Illustrator 23.0.0, SVG Export Plug-In . SVG Version: 6.00 Build 0)  -->
<svg version="1.1" id="Слой_1" xmlns="http://www.w3.org/2000/svg" xmlns:xlink="http://www.w3.org/1999/xlink" x="0px" y="0px"
	 width="86.4px" height="86.4px" viewBox="0 0 86.4 86.4" enable-background="new 0 0 86.4 86.4" xml:space="preserve">
<circle fill="#FFBC00" cx="43.2" cy="43.2" r="43.2"/>
<ellipse transform="matrix(0.185 -0.9827 0.9827 0.185 -7.8475 51.9558)" cx="27.4" cy="30.7" rx="6" ry="4.3"/>
<ellipse transform="matrix(0.185 -0.9827 0.9827 0.185 11.5947 79.49)" cx="53.7" cy="32.8" rx="6" ry="4.3"/>
<path fill="none" stroke="#000000" stroke-width="2.8" stroke-miterlimit="10" d="M27.4,54.1c0,0,14.6-4.7,23.5,4.2"/>
<path fill="none" stroke="#000000" stroke-width="2.8" stroke-miterlimit="10" d="M37.5,19.8c0,0-3.8,2.5-7.6-0.6s-9.7-3.3-12.7,0"
	/>
<ellipse transform="matrix(5.442603e-02 -0.9985 0.9985 5.442603e-02 21.3553 84.9485)" fill="none" stroke="#000000" stroke-width="2.8" stroke-miterlimit="10" cx="55.5" cy="31.2" rx="17" ry="14.1"/>
<path fill="none" stroke="#000000" stroke-width="2.8" stroke-miterlimit="10" d="M70.3,30.7c0,0,9.8,2.9,9.9,15.7
	c0.1,12.9-7,22,0,35.9"/>
</svg>
