<?xml version="1.0" encoding="utf-8"?>
<!-- Generator: Adobe Illustrator 23.0.0, SVG Export Plug-In . SVG Version: 6.00 Build 0)  -->
<svg version="1.1" id="Слой_1" xmlns="http://www.w3.org/2000/svg" xmlns:xlink="http://www.w3.org/1999/xlink" x="0px" y="0px"
	 width="111.7px" height="86.4px" viewBox="0 0 111.7 86.4" enable-background="new 0 0 111.7 86.4" xml:space="preserve">
<circle fill="#FFBC00" cx="56.3" cy="43.2" r="43.2"/>
<path fill="none" stroke="#000000" stroke-width="2.8" stroke-miterlimit="10" d="M61.9,40.2c0,0,13.7-6.9,23.9,0.6"/>
<path fill="none" stroke="#000000" stroke-width="2.8" stroke-miterlimit="10" d="M49.8,40.2c0,0-13.7-6.9-23.9,0.6"/>
<path fill="none" stroke="#000000" stroke-width="2.8" stroke-miterlimit="10" d="M34.3,29c0,0-8.6,2.8-11.9,8.1"/>
<path fill="none" stroke="#000000" stroke-width="2.8" stroke-miterlimit="10" d="M77.7,29c0,0,8.6,2.8,11.9,8.1"/>
<path fill="#FFFFFF" d="M30.3,50.9c0,0-3.6-0.5-2,2.6c1.7,3.1,2.4,5.8,6.8,7.2c4.4,1.4,23,4.7,35.2,1.9s12.1-4.6,12.3-6
	c0.2-1.4,4-7.6-0.6-5.5c-4.6,2-20.7,2.8-28.1,2.9S30.3,50.9,30.3,50.9z"/>
<path fill="none" stroke="#000000" stroke-width="2.8" stroke-miterlimit="10" d="M26.7,49.2c0,0,7.4,5.3,28.1,5.3
	s29.9-5.3,29.9-5.3S81,76.7,56.3,76.7S26.7,49.2,26.7,49.2z"/>
<path fill="none" stroke="#000000" stroke-width="2.8" stroke-miterlimit="10" d="M29.7,58.2c0,0,9.3,6.1,26.6,6.1s25.3-5,25.3-5"/>
<path fill="#009CF5" d="M106.9,56.8L106.9,56.8L85,41.9l4.4,26.3l0,0c0.3,1.3,0.8,2.6,1.6,3.8c3.4,5.2,10.3,6.7,15.5,3.4
	c5.2-3.4,6.7-10.3,3.4-15.5C109.1,58.6,108.1,57.6,106.9,56.8z"/>
<path fill="#009CF5" d="M4.8,56.8L4.8,56.8l22-14.9l-4.4,26.3l0,0c-0.3,1.3-0.8,2.6-1.6,3.8c-3.4,5.2-10.3,6.7-15.5,3.4
	s-6.7-10.3-3.4-15.5C2.6,58.6,3.6,57.6,4.8,56.8z"/>
<path d="M33,59.9c0,0-1.9,1.3,0,3.7c1.9,2.3,8.9,13.2,21.8,12.7c12.9-0.5,20.6-6.5,23.2-10.5c2.5-4.1,0.9-6.1-1.5-4.3
	c-2.4,1.8-16.4,3.8-26.3,2.3C40.3,62.3,33,59.9,33,59.9z"/>
</svg>
