<?xml version="1.0" encoding="utf-8"?>
<!-- Generator: Adobe Illustrator 23.0.0, SVG Export Plug-In . SVG Version: 6.00 Build 0)  -->
<svg version="1.1" id="Слой_1" xmlns="http://www.w3.org/2000/svg" xmlns:xlink="http://www.w3.org/1999/xlink" x="0px" y="0px"
	 width="86.4px" height="86.4px" viewBox="0 0 86.4 86.4" enable-background="new 0 0 86.4 86.4" xml:space="preserve">
<circle fill="#F43737" cx="43.2" cy="43.2" r="43.2"/>
<ellipse transform="matrix(0.9991 -4.314485e-02 4.314485e-02 0.9991 -2.1385 2.4434)" cx="55.5" cy="50.8" rx="5.4" ry="7.6"/>
<path d="M48.3,47.9c1-0.1,1.5-2.6,7.7-5.3c6.2-2.6,10.2-1.3,10.8-3.5c0.5-1.7-5.6-2.6-10.5-0.8C50.4,40.5,46.6,48,48.3,47.9z"/>
<ellipse transform="matrix(4.314485e-02 -0.9991 0.9991 4.314485e-02 -21.1831 79.4124)" cx="30.9" cy="50.8" rx="7.6" ry="5.4"/>
<path d="M38.1,47.9c-1-0.1-1.5-2.6-7.7-5.3c-6.2-2.6-10.2-1.3-10.8-3.5c-0.5-1.7,5.6-2.6,10.5-0.8C36,40.5,39.8,48,38.1,47.9z"/>
<path d="M30.9,73.4c1.4,0.6,5.6-3.9,11.8-3.9s11.4,4.1,11.9,3.7c0.7-0.6-2.5-9.5-11.4-9.5S30.1,73,30.9,73.4z"/>
</svg>
