<?xml version="1.0" encoding="utf-8"?>
<!-- Generator: Adobe Illustrator 23.0.0, SVG Export Plug-In . SVG Version: 6.00 Build 0)  -->
<svg version="1.1" id="Слой_1" xmlns="http://www.w3.org/2000/svg" xmlns:xlink="http://www.w3.org/1999/xlink" x="0px" y="0px"
     width="4186.2px" height="1824.9px" viewBox="0 0 4186.2 1824.9" enable-background="new 0 0 4186.2 1824.9" xml:space="preserve">
<g>
	<path fill="#000" d="M4182.4,112.7l-0.2-0.3c-0.6-0.8-14.9-19-42.4-41.2c-25.4-20.5-67.3-48.4-122.4-64.5c-71.7-21-169.4,14.2-170.4,14.6
		c-16.5,6.6-379.5,151.7-1079,431.2l-301,119.5c-22.5,9-2245.7,899.8-2287,916.4c-0.9,0.4-91.6,39-130.9,102.5
		C7.7,1657.7,0.1,1734.6,0,1735.4l0,0.4l0,0.1v49.8l0.1,0.3c0.3,1.1,7.3,26.7,50.4,37.2l0.6-2.4l-0.4,2.4c0.7,0.1,9.4,1.6,23.9,1.6
		c14.4,0,34.4-1.5,57.9-7.3c40.8-10.1,93.7-29.8,131-44.6c20.4-8.1,2287.7-914.4,2310.6-923.5l195.7-78.5
		c351.7-140.9,747.6-299.6,988.7-396.2h1.9v-0.7c133.1-53.3,218.5-87.6,222.4-89.1c37.1-15,89-37.3,125.6-58.1
		c42.2-24,62.3-51.2,63.2-52.3l-2-1.5l2.1,1.3C4195.5,137.1,4182.9,113.7,4182.4,112.7z M76.7,1563.9
		C76.7,1563.9,76.7,1563.8,76.7,1563.9c42.9-44.4,104.3-70.5,105-70.8c11-4.4,176.8-70.9,414.6-166.2l101.5,80
		c-371,148.7-425.2,170.4-432.3,173.2l0,0c0,0-0.1,0-0.1,0.1c-0.6,0.2-0.8,0.3-0.9,0.3l0,0c-20.3,8.2-45.3,20.6-70.4,36.1l0-0.1
		c0,0-0.5,0.4-1.4,0.9c-1,0.6-2.1,1.3-3.1,1.9c-4.7,2.8-12.4,6.8-19.7,7.8c-15.4,2.1-24.3-6.1-24.7-6.4l-64-50.4l-0.1-0.1
		C79.5,1569.1,76.2,1566,76.7,1563.9z M139.6,1622.5c-5.9,5-21.6,19.5-39.8,43.7c-11,14.7-21.5,30.1-25.3,35.8l-44.7-33.7
		c2-6.7,10.5-33,26.6-59.2c11.7-19.2,20.8-29.4,24.3-32.9L139.6,1622.5z M5.6,1730.9c-0.1,1.7,0.1,3.3,0.5,4.7
		c0.7,2.5,2.3,4.1,4.3,4.5c0.3,0,0.5,0.1,0.8,0.1c3.3,0,6.3-3.7,7.2-9.2c1-5.9-0.9-10.7-4.5-11.3c-2-0.3-4,0.7-5.5,2.8
		c-1,1.4-1.8,3.3-2.3,5.4c3.1-21.3,14.3-81.1,47.2-134.3c5.6-9,12.2-17.4,19.4-25.4c1,2,2.7,3.7,3.9,4.8
		c-3.9,4.1-12.9,14.4-24.6,33.4c-18.8,30.8-27.5,61.8-27.6,62.1l-0.5,1.6l51.7,39l1.5-2.2c0.1-0.2,13-19.6,26.6-37.7
		c18.6-24.7,34.9-39.3,39.8-43.5c3.2,2.3,10.6,6.8,21.4,6.8c1.8,0,3.6-0.1,5.6-0.4c-19.9,14-39,29.8-54.6,46.9
		c-37.3,40.7-61.1,80.6-66,89.1c-35.7-9.3-43.8-29.8-44.8-32.8C5.1,1734.7,5.3,1733.1,5.6,1730.9z M10.8,1729.6
		c0.5-2.8,1.6-4.5,2.2-4.9c0.4,0.7,0.9,2.6,0.5,5.4c-0.5,2.8-1.6,4.5-2.2,4.9C10.8,1734.3,10.3,1732.4,10.8,1729.6z M700.1,1593.1
		c-254.9,101.9-432.9,173-438.5,175.2c-37.1,14.7-89.8,34.3-130.3,44.4c-45.1,11.2-78.1,5.9-79.7,5.6c-37.7-9.2-45.8-30.7-46.6-33.3
		v-39c6,8.7,18.9,21,45.5,27.4l0.6-2.4l-0.4,2.5c0.7,0.1,9.4,1.6,23.9,1.6c14.4,0,34.4-1.5,57.9-7.3c40.8-10.1,93.7-29.8,131-44.6
		c5.7-2.3,183.4-73.6,436.7-175.2V1593.1z M700.1,1542.7c-254.3,102-432.8,173.6-438.5,175.9c-37.1,14.7-89.8,34.3-130.3,44.4
		c-37.3,9.3-66.4,7.2-76.1,6.1c6.4-10.9,29.4-48.4,64.5-86.7c20.2-22,46-41.9,72.2-58.5c1.8-1.1,3.3-2,4.2-2.6
		c25.5-15.8,50.9-28.3,71.4-36.6c6.7-2.7,59.5-23.8,432.8-173.4V1542.7z M601.7,1324.8c147.1-59,321.3-128.7,503.2-201.6l101.5,80
		c-211.7,84.8-375.9,150.6-503.2,201.6L601.7,1324.8z M1209,1389.7c-181.2,72.4-355.4,142.1-503.9,201.4v-45.1
		c148.7-59.7,323.1-129.7,503.9-202.2V1389.7z M1209,1338.5c-180.7,72.5-355,142.5-503.9,202.2v-131.3
		c127.5-51.1,291.9-117,503.9-201.9V1338.5z M1110.3,1121c166.8-66.8,339.8-136.2,504.4-202.1l101.5,80
		c-192.5,77.1-359.5,144-504.3,202.1L1110.3,1121z M1718.8,1186c-164.4,65.7-337.5,134.9-504.8,201.8v-45.9
		c168.1-67.4,341.5-137,504.8-202.5V1186z M1718.8,1133.9c-163.2,65.5-336.6,135.1-504.8,202.5v-131.1
		c145-58.1,312.1-125.1,504.8-202.3V1133.9z M1620,916.7c186.1-74.6,361.1-144.7,503.2-201.6l102.1,79.7
		c-184.8,74-352.2,141.1-503.8,201.9L1620,916.7z M2227.7,982.6c-142.1,56.8-317.3,126.8-503.9,201.4v-46.7
		c190.2-76.3,366.3-147,503.9-202.2V982.6z M2227.7,929.7c-137.4,55.1-313.6,125.8-503.9,202.2v-130.8
		c151.7-60.8,319.1-127.9,503.9-201.9V929.7z M2128.5,712.9c200.7-80.4,334.8-134.1,340.2-136.3l162.2-64.4l0,0.1l101.8,79.5
		l-172.2,68.7c-115.7,46.4-225.6,90.4-329.9,132.2L2128.5,712.9z M2736.6,778.9l-164.4,65.9c-5.5,2.2-139.1,55.6-339.5,135.7v-47.5
		c168.1-67.4,277.4-111.3,282.3-113.3l221.6-88.3V778.9z M2736.6,726.2l-223.5,89c-4.9,1.9-113.4,45.5-280.4,112.5V797.2
		c104.3-41.8,214.1-85.8,329.7-132.1l174.2-69.5V726.2z M2636.3,510.1l133.4-53c136.9-54.7,260.9-104.3,371.9-148.6l101.8,79.5
		l-505.3,201.6L2636.3,510.1z M3246,574.8c-156.4,62.7-321.6,128.9-478.1,191.6l-26.3,10.5v-47.4L3246,528.7V574.8z M3246,523.3
		l-504.4,200.9V593.6L3246,392.4V523.3z M3147,306.4c218.4-87.3,386.3-154.4,503.1-201.1l102.1,79.7l-503.4,200.8L3147,306.4z
		 M3755.3,370.7c-132.6,53.1-311.7,124.9-504.4,202.1v-46.1l504.4-200.9V370.7z M3755.3,320.4L3251,521.3V390.4l504.4-201.2V320.4z
		 M3757.5,182.9l-102.1-79.7C3777.3,54.5,3842,28.6,3848.7,26c1-0.4,97.1-35,167.2-14.5c54.3,15.9,95.5,43.3,120.6,63.5
		c25.7,20.8,40.1,38.4,41.6,40.3c0.8,1.7,7.6,16.7-2.5,40.8c-5.6-4.1-19.7-13.6-39.5-21.4c-2.4-1.2-35.2-16.6-108.2-20.2
		c-60.6-3-135.7,14.6-179.8,32.2L3757.5,182.9z M4131.1,138c-6,7.2-25.7,29.1-59.6,48.5c-36.3,20.7-88,42.8-125,57.8l-186.2,74.2
		V187.1l89.6-35.7c43.6-17.4,117.8-34.8,177.7-31.8C4088.6,122.6,4121.7,134.2,4131.1,138z M4167.4,171.7
		c-1,1.3-21.2,27.9-61.5,50.9c-36.3,20.7-88,42.8-125,57.8c-3.9,1.6-88.5,35.5-220.5,88.4v-44.9l188.1-74.9
		c37.1-15,89-37.3,125.6-58.1c37-21.1,57-44.6,62-50.8c19.3,7.8,33.1,17.4,37.6,20.7C4171.8,164.3,4169.8,167.9,4167.4,171.7z"/>
    <path d="M40,1762.6c0.6,0.2,1.3,0.3,2,0.3c3.9,0,7.9-3.5,9.6-8.9c0.9-2.8,1-5.7,0.3-8.1c-0.8-2.8-2.5-4.8-4.8-5.6
		c-2.3-0.7-4.9-0.1-7.2,1.7c-2,1.6-3.5,4-4.4,6.8C33.5,1755.2,35.4,1761.2,40,1762.6z M40.2,1750.4c0.6-1.9,1.6-3.5,2.8-4.5
		c0.7-0.6,1.4-0.9,2-0.9c0.2,0,0.3,0,0.5,0.1c0.7,0.2,1.2,1,1.5,2.1c0.4,1.5,0.3,3.4-0.3,5.3c-1.2,3.6-3.8,5.8-5.3,5.3
		C39.9,1757.3,39.1,1754.1,40.2,1750.4z"/>
</g>
</svg>
