<?xml version="1.0" encoding="utf-8"?>
<!-- Generator: Adobe Illustrator 23.0.0, SVG Export Plug-In . SVG Version: 6.00 Build 0)  -->
<svg version="1.1" id="Layer_1" xmlns="http://www.w3.org/2000/svg" xmlns:xlink="http://www.w3.org/1999/xlink" x="0px" y="0px"
	 width="905.3px" height="3198.4px" viewBox="0 0 905.3 3198.4" enable-background="new 0 0 905.3 3198.4" xml:space="preserve">
<path d="M250.4,580.7h-80.6l-0.6-3.2l-59-296.5H310L250.4,580.7z M176.4,572.7h67.4L300.2,289H120L176.4,572.7z"/>
<polygon points="276.1,594.5 245.4,580.3 248.8,573.1 271.5,583.5 361.3,329.3 305.1,287.5 309.9,281.1 370.8,326.4 "/>
<polygon points="144.2,594.5 49.5,326.4 110.3,280.9 115.1,287.3 59,329.3 148.8,583.5 171.5,573.1 174.8,580.3 "/>
<path d="M200,746.1h-8V657c-0.5-1.1-1.7-3.9-4.2-9c-3.1-6.3-2.4-13.7-1.8-17.4c-2-2.1-5.5-6-9-11.6c-5.5-8.9-5.7-19.1-5.7-19.5
	l0-2.1l15.6-11.2h46.8l15.6,11.2l0,2.1c0,0.4-0.1,10.6-5.7,19.5c-3.5,5.6-7,9.5-9,11.6c0.7,3.7,1.3,11.2-1.8,17.4
	c-2.5,5.1-3.8,7.8-4.2,9V746h-8v-90.6l0.3-0.7c0-0.1,1.1-2.9,4.8-10.4c2.9-5.8,0.7-14.1,0.7-14.2l-0.7-2.4l1.9-1.7
	c0,0,4.6-4.1,9.2-11.4c3.1-4.9,4-10.4,4.3-13.3l-10.1-7.2h-41.7l-10.1,7.2c0.3,2.9,1.3,8.5,4.3,13.3c4.6,7.3,9.2,11.4,9.2,11.4
	l1.9,1.7l-0.7,2.4c0,0.1-2.2,8.3,0.7,14.1c3.7,7.4,4.8,10.3,4.8,10.4l0.3,0.7V746.1z"/>
<rect x="245.1" y="592.8" transform="matrix(0.9176 -0.3974 0.3974 0.9176 -215.7421 152.6331)" width="30.5" height="8"/>
<rect x="156.6" y="581.1" transform="matrix(0.3972 -0.9177 0.9177 0.3972 -451.3394 507.4444)" width="8" height="32.4"/>
<rect x="278.3" y="151.5" transform="matrix(0.9437 -0.3307 0.3307 0.9437 -52.9953 105.0714)" width="8" height="113.5"/>
<rect x="81" y="203.5" transform="matrix(0.3275 -0.9449 0.9449 0.3275 -103.3298 269.9119)" width="113.9" height="8"/>
<polygon points="420.3,331.8 366.2,331.8 366.2,323.8 395.2,323.8 313.3,265.6 107.1,265.6 25.1,323.8 54.2,323.8 54.2,331.8 
	0,331.8 104.5,257.6 315.8,257.6 "/>
<polygon points="69.9,291.7 62.6,288.4 113.3,177.4 155.5,149.8 263.9,149.8 306.4,176.7 357.6,288.1 350.3,291.4 300.1,182.2 
	261.5,157.8 157.9,157.8 119.7,182.9 "/>
<path d="M278.8,166.7c0-0.2-2.1-20.4-14.5-31.7c-12.3-11.3-31-11.9-31.2-11.9l-46.8,0c-0.1,0-18.7,0.5-31.1,11.9
	c-12.4,11.4-14.5,31.5-14.5,31.7l-8-0.8c0.1-0.9,2.4-23.4,17-36.8c14.6-13.4,35.5-13.9,36.4-14l47,0c1,0,21.9,0.6,36.5,14
	c14.6,13.4,16.9,35.9,17,36.8L278.8,166.7z"/>
<path d="M181.2,120.9l-8-0.8c0-0.5,1.2-11.3,8.3-17.8c7.1-6.5,17.3-6.8,17.7-6.8l21,0c0.5,0,10.6,0.3,17.8,6.8
	c7.1,6.5,8.3,17.4,8.3,17.8l-8,0.8c0-0.1-0.9-8.3-5.7-12.7c-4.9-4.5-12.4-4.7-12.5-4.7l-20.8,0c0,0-7.5,0.2-12.4,4.7
	C182.1,112.6,181.2,120.8,181.2,120.9z"/>
<path d="M219.9,100.3l-7.3-3.3l5.6-12.3l-8.7-14l-8.7,14l5.6,12.3l-7.3,3.3l-7.4-16.2l9.4-15.2c-4.6-3.8-12.4-11.9-11.4-22.8
	c1.3-13.3,15.5-42.6,16.1-43.9L207,0h5l1.1,2.2c0.6,1.2,14.8,30.6,16.1,43.9c1.1,10.9-6.7,19-11.4,22.8l9.4,15.2L219.9,100.3z
	 M209.5,13.5c-4.7,10.4-11,25.9-11.8,33.4c-1,10.1,10.8,17.5,10.9,17.5l0.9,0.6l0.9-0.6c0.1-0.1,11.8-7.5,10.9-17.5
	C220.6,39.3,214.2,23.9,209.5,13.5z"/>
<path d="M210.5,794.3c-15.7,0-28.5-12.8-28.5-28.5c0-15.7,12.8-28.5,28.5-28.5s28.5,12.8,28.5,28.5
	C239,781.6,226.2,794.3,210.5,794.3z M210.5,745.3c-11.3,0-20.5,9.2-20.5,20.5s9.2,20.5,20.5,20.5s20.5-9.2,20.5-20.5
	S221.8,745.3,210.5,745.3z"/>
<rect x="-1043.2" y="1988" transform="matrix(2.685234e-02 -0.9996 0.9996 2.685234e-02 -1832.0817 2102.0144)" width="2413.5" height="8"/>
<rect x="253.2" y="785.2" transform="matrix(0.9996 -2.689678e-02 2.689678e-02 0.9996 -53.4849 7.6397)" width="8" height="2413.5"/>
<path d="M770.5,779.4c0-0.2-3.2-20.6-20.3-42.5c-22.7-29.1-59.6-48-106.8-54.6l1.1-7.9c62.5,8.7,95.6,36.3,112.3,58
	c18.2,23.6,21.5,45,21.6,45.9L770.5,779.4l4-0.6L770.5,779.4z"/>
<path d="M778.3,779.4l-7.9-1.1c0.1-0.9,3.4-22.3,21.6-45.9c16.7-21.6,49.8-49.2,112.3-58l1.1,7.9c-59.9,8.3-91.3,34.5-107.1,54.9
	C781.3,759.2,778.3,779.2,778.3,779.4z"/>
</svg>
