<svg id="Layer_1" data-name="Layer 1" xmlns="http://www.w3.org/2000/svg" viewBox="0 0 728.75 340.31"><defs><style>.cls-1{fill:red;}.cls-2{fill:#ffb400;}</style></defs><title>logo_ai_arena_2</title><path class="cls-1" d="M467,380a12,12,0,0,1,12-12h42a12,12,0,0,1,12,12v43h62.33a95.33,95.33,0,1,0-190.67,0H467Z" transform="translate(-134.44 -327.67)"/><path class="cls-2" d="M533,423v41.5a12,12,0,0,1-12,12H479a12,12,0,0,1-12-12V423H404.67a95.33,95.33,0,1,0,190.67,0Z" transform="translate(-134.44 -327.67)"/><path d="M182.75,656.79,179,646.5H153l-3.82,10.28H134.44l23.48-60.69h16.2l23.38,60.69ZM166,609l-9.46,26.11h18.93Z" transform="translate(-134.44 -327.67)"/><path d="M205.87,656.79V596.1h28.39c13.19,0,20.38,8.92,20.38,19.56s-7.28,19.56-20.38,19.56H218.79v21.56Zm35.58-41.13c0-5.09-3.82-8.19-8.92-8.19H218.79v16.38h13.74C237.62,623.85,241.44,620.66,241.44,615.66Z" transform="translate(-134.44 -327.67)"/><path d="M265.38,656.79V596.1h42.95v11.37h-30V620.3h29.39v11.37H278.3v13.74h30v11.37Z" transform="translate(-134.44 -327.67)"/><path d="M362.74,656.79V631.31H334.07v25.48H321.15V596.1h12.92v23.84h28.66V596.1h13v60.69Z" transform="translate(-134.44 -327.67)"/><path d="M432.25,656.79l-3.73-10.28h-26l-3.82,10.28H383.94l23.48-60.69h16.2L447,656.79ZM415.51,609,406,635.13H425Z" transform="translate(-134.44 -327.67)"/><path d="M478.48,626.49c0-18.29,13.38-31.39,31.66-31.39s31.75,13.1,31.75,31.39-13.38,31.39-31.75,31.39S478.48,644.77,478.48,626.49Zm50.13,0c0-11.37-7.28-19.93-18.47-19.93s-18.38,8.55-18.38,19.93,7.19,19.93,18.38,19.93S528.61,637.77,528.61,626.49Z" transform="translate(-134.44 -327.67)"/><path d="M547,646.41c6.19-.82,9.65-3.28,11.56-19.29l3.55-31h43.13v49.32h5.46V668H597.77V656.79H559.92V668H547Zm17-1h28.21V607.47H573.75L571.38,628C570.47,636.22,567.83,641.86,564,645.41Z" transform="translate(-134.44 -327.67)"/><path d="M621,656.79V596.1h42.95v11.37h-30V620.3h29.39v11.37H633.89v13.74h30v11.37Z" transform="translate(-134.44 -327.67)"/><path d="M673.84,626.49c0-18.65,14.1-31.39,32.3-31.39,13.38,0,21.11,7.28,25.39,14.83l-11.1,5.46a16.45,16.45,0,0,0-14.29-8.83c-11,0-19,8.46-19,19.93s8,19.93,19,19.93a16.27,16.27,0,0,0,14.29-8.83l11.1,5.37c-4.37,7.55-12,14.92-25.39,14.92C687.94,657.88,673.84,645.14,673.84,626.49Z" transform="translate(-134.44 -327.67)"/><path d="M739.08,626.49c0-18.65,14.1-31.39,32.3-31.39,13.38,0,21.11,7.28,25.39,14.83l-11.1,5.46a16.45,16.45,0,0,0-14.29-8.83c-11,0-19,8.46-19,19.93s8,19.93,19,19.93a16.27,16.27,0,0,0,14.29-8.83l11.1,5.37c-4.37,7.55-12,14.92-25.39,14.92C753.18,657.88,739.08,645.14,739.08,626.49Z" transform="translate(-134.44 -327.67)"/><path d="M848.45,656.79l-3.73-10.28h-26l-3.82,10.28H800.14l23.47-60.69h16.2l23.38,60.69ZM831.71,609l-9.46,26.11h18.93Z" transform="translate(-134.44 -327.67)"/></svg>