<svg width="473" height="88" viewBox="0 0 473 88" fill="none" xmlns="http://www.w3.org/2000/svg">
<path d="M105.1 40.3C105.1 49.246 111.568 55.42 120.094 55.42C128.62 55.42 135.088 49.036 135.088 40.3C135.088 31.354 128.62 25.18 120.094 25.18C111.358 25.18 105.1 31.774 105.1 40.3ZM108.88 40.3C108.88 33.454 113.71 28.54 120.094 28.54C126.394 28.54 131.308 33.454 131.308 40.3C131.308 46.936 126.814 52.06 120.094 52.06C113.794 52.06 108.88 46.978 108.88 40.3ZM154.091 55H157.451V25.6H154.091V37.024C152.789 36.1 151.319 35.68 149.303 35.68C143.339 35.68 138.971 39.796 138.971 45.676C138.971 51.514 142.541 55.336 148.085 55.336C150.647 55.336 152.705 54.118 154.091 52.606V55ZM148.715 52.186C145.187 52.186 142.541 49.75 142.541 45.592C142.541 41.434 145.691 38.83 149.429 38.83C150.983 38.83 152.495 39.292 154.091 40.3V49.666C152.915 50.968 150.899 52.186 148.715 52.186ZM178.397 50.296C177.179 51.43 175.037 52.27 172.601 52.27C168.905 52.27 166.301 50.17 166.007 46.6H180.539C180.665 46.012 180.749 45.256 180.749 44.332C180.749 39.124 176.843 35.68 171.971 35.68C165.755 35.68 162.227 40.048 162.227 45.55C162.227 51.514 166.217 55.42 172.349 55.42C174.869 55.42 177.599 54.622 179.447 52.942L178.397 50.296ZM171.803 38.83C175.079 38.83 177.095 40.762 177.263 43.87H165.797C166.175 40.972 168.359 38.83 171.803 38.83ZM194.883 49.876C194.883 51.598 193.287 52.48 191.523 52.48C189.633 52.48 187.155 51.346 186.063 50.086L184.173 52.48C185.055 53.824 188.079 55.42 191.145 55.42C194.925 55.42 198.453 53.698 198.453 49.708C198.453 43.072 188.247 44.962 188.247 40.972C188.247 39.712 189.381 38.62 191.271 38.62C193.245 38.62 194.883 39.46 196.017 40.468L197.613 37.906C196.479 36.814 194.211 35.68 191.103 35.68C187.365 35.68 184.677 37.696 184.677 41.014C184.677 47.944 194.883 46.054 194.883 49.876ZM204.362 40.09C205.874 39.292 207.26 38.704 209.57 38.704C213.308 38.704 213.854 41.14 213.854 44.668C212.594 43.744 210.62 43.45 209.15 43.45C205.076 43.45 202.01 45.592 202.01 49.456C202.01 53.11 204.362 55.294 207.806 55.294C210.914 55.294 212.72 53.992 213.854 52.564V55H217.046V43.408C217.046 38.494 215.156 35.68 209.78 35.68C207.428 35.68 205.16 36.352 203.48 37.402L204.362 40.09ZM208.982 52.27C206.798 52.27 205.58 51.094 205.58 49.288C205.58 47.104 207.596 46.18 209.612 46.18C211.25 46.18 212.678 46.6 213.854 47.44V49.834C212.888 50.968 211.46 52.27 208.982 52.27ZM233.492 55H251.552V51.64H237.062V25.6H233.492V55ZM255.507 55H258.867V36.1H255.507V55ZM255.087 29.002C255.087 30.388 256.095 31.186 257.271 31.186C258.321 31.186 259.329 30.388 259.329 29.002C259.329 27.784 258.321 26.986 257.271 26.986C256.095 26.986 255.087 27.784 255.087 29.002ZM263.217 57.73C263.217 61.846 267.333 63.736 272.835 63.736C278.337 63.736 282.453 61.762 282.453 57.73C282.453 53.614 278.337 51.64 272.835 51.64C272.457 51.64 272.079 51.682 271.701 51.682C271.449 51.346 271.323 50.884 271.323 50.422C271.323 50.086 271.365 49.708 271.533 49.372C271.953 49.414 272.373 49.414 272.793 49.414C277.455 49.414 280.521 46.39 280.521 42.61C280.521 41.434 280.227 40.3 279.639 39.334L283.209 38.452L283.125 35.722L277.581 37.066C276.279 36.184 274.641 35.68 272.793 35.68C268.047 35.68 265.065 38.83 265.065 42.61C265.065 45.382 266.619 47.734 269.307 48.826C268.971 49.246 268.803 49.834 268.803 50.422C268.803 50.968 268.929 51.556 269.265 51.976C265.653 52.732 263.217 54.664 263.217 57.73ZM266.367 57.73C266.367 55.63 268.803 54.37 272.835 54.37C276.867 54.37 279.303 55.63 279.303 57.73C279.303 59.872 276.741 61.006 272.835 61.006C268.929 61.006 266.367 59.83 266.367 57.73ZM268.215 42.61C268.215 40.258 270.021 38.41 272.793 38.41C275.607 38.41 277.371 40.258 277.371 42.61C277.371 45.046 275.439 46.684 272.793 46.684C270.021 46.684 268.215 44.962 268.215 42.61ZM286.575 55H289.935V41.308C291.111 39.964 293.211 38.914 295.311 38.914C298.797 38.914 300.603 40.846 300.603 44.626V55H303.963V44.164C303.963 38.242 301.023 35.764 296.109 35.764C293.715 35.764 291.321 36.856 289.935 38.284V25.6H286.575V55ZM309.206 47.818C309.206 52.648 310.886 55.336 315.128 55.336C317.228 55.336 318.95 54.58 319.958 53.74L318.908 51.136C318.236 51.64 317.228 52.186 315.926 52.186C313.532 52.186 312.566 50.464 312.566 47.482V39.25H319.496V36.1H312.566V30.85H309.206V47.818ZM348.02 47.482C348.02 50.464 345.332 52.06 342.266 52.06C339.788 52.06 336.722 50.842 335 48.574L332.942 51.01C334.412 53.782 338.612 55.42 342.224 55.42C347.558 55.42 351.8 52.27 351.8 47.44C351.8 37.402 337.436 40.132 337.436 32.866C337.436 30.262 339.452 28.54 342.728 28.54C345.29 28.54 347.138 29.38 348.692 30.934L350.624 28.246C348.944 26.398 345.92 25.18 342.518 25.18C336.932 25.18 333.656 28.624 333.656 32.866C333.656 42.61 348.02 40.3 348.02 47.482ZM373.507 36.1H370.147V49.456C368.971 50.968 366.913 52.27 364.729 52.27C361.285 52.27 359.857 50.17 359.857 46.6V36.1H356.497V47.356C356.497 52.9 359.269 55.42 363.469 55.42C366.451 55.42 368.845 53.908 370.147 52.312V55H373.507V36.1ZM379.598 53.236C381.404 54.538 384.302 55.42 387.326 55.42C393.668 55.42 397.826 51.472 397.826 45.256C397.826 39.67 394.466 35.68 388.838 35.68C386.57 35.68 384.302 36.688 382.958 37.906V25.6H379.598V53.236ZM388.082 38.83C391.736 38.83 394.256 41.266 394.256 45.508C394.256 49.75 391.316 52.27 387.494 52.27C385.856 52.27 384.47 51.976 382.958 50.968V41.266C383.882 40.09 385.898 38.83 388.082 38.83ZM428.611 36.1H425.209L421.765 47.818C421.471 48.784 421.219 49.75 421.009 50.716C420.715 49.792 420.463 48.868 420.127 47.986L415.801 36.1H412.903L408.619 48.028C408.241 49.078 408.073 49.834 407.821 50.674C407.569 49.792 407.401 48.952 407.107 48.028L403.411 36.1H399.799L406.057 55.168H408.829L413.407 42.988C413.743 42.19 413.953 41.434 414.205 40.552C414.415 41.35 414.625 42.106 414.919 42.862L419.623 55.168H422.563L428.611 36.1ZM433.065 40.09C434.577 39.292 435.963 38.704 438.273 38.704C442.011 38.704 442.557 41.14 442.557 44.668C441.297 43.744 439.323 43.45 437.853 43.45C433.779 43.45 430.713 45.592 430.713 49.456C430.713 53.11 433.065 55.294 436.509 55.294C439.617 55.294 441.423 53.992 442.557 52.564V55H445.749V43.408C445.749 38.494 443.859 35.68 438.483 35.68C436.131 35.68 433.863 36.352 432.183 37.402L433.065 40.09ZM437.685 52.27C435.501 52.27 434.283 51.094 434.283 49.288C434.283 47.104 436.299 46.18 438.315 46.18C439.953 46.18 441.381 46.6 442.557 47.44V49.834C441.591 50.968 440.163 52.27 437.685 52.27ZM468.554 36.1H464.732L460.364 48.07C460.028 49.078 459.734 50.044 459.482 50.968C459.104 50.002 458.768 49.078 458.348 48.112L452.804 36.1H448.772L457.844 55L457.424 56.008C456.164 59.032 454.988 60.292 453.392 60.292C452.636 60.292 451.922 59.956 451.292 59.662L450.2 62.224C451.208 62.896 452.342 63.4 453.77 63.4C456.458 63.4 458.222 61.762 460.994 55L468.554 36.1Z" fill="black"/>
<path d="M41.5 5C31.2913 5.01138 21.5041 9.07193 14.2862 16.2906C7.0683 23.5092 3.00931 33.2962 3 43.5039C3.01137 53.7102 7.07124 63.4952 14.2889 70.7122C21.5066 77.9292 31.2927 81.9886 41.5 82C51.7074 81.9886 61.4934 77.9292 68.7111 70.7122C75.9288 63.4952 79.9886 53.7102 80 43.5039C79.9907 33.2962 75.9317 23.5092 68.7138 16.2906C61.4959 9.07193 51.7087 5.01138 41.5 5ZM41.5 13.0039C49.586 13.0132 57.338 16.23 63.0545 21.9481C68.7711 27.6663 71.9852 35.4187 71.9914 43.5039C71.9961 45.1641 71.8655 46.822 71.6007 48.4609L54.4662 31.332L41.5313 44.2734L28.5924 31.3359L11.4344 48.4883C11.1564 46.8413 11.014 45.1742 11.0086 43.5039C11.0159 35.4194 14.2304 27.668 19.9468 21.9507C25.6633 16.2333 33.4147 13.0171 41.5 13.0078V13.0039ZM41.5 73.9844C35.8211 73.9788 30.2563 72.3892 25.4314 69.3942C20.6066 66.3993 16.713 62.1178 14.1886 57.0313L28.5768 42.6445L41.5156 55.582L54.4505 42.6445L68.8231 57.0117C66.2989 62.1015 62.404 66.3858 57.5768 69.3823C52.7496 72.3788 47.1818 73.9685 41.5 73.9727V73.9844Z" fill="#2858FE"/>
</svg>
