<?xml version="1.0" encoding="UTF-8" standalone="no"?>
<!-- Generator: Adobe Illustrator 23.0.0, SVG Export Plug-In . SVG Version: 6.00 Build 0)  -->

<svg
   xmlns:dc="http://purl.org/dc/elements/1.1/"
   xmlns:cc="http://creativecommons.org/ns#"
   xmlns:rdf="http://www.w3.org/1999/02/22-rdf-syntax-ns#"
   xmlns:svg="http://www.w3.org/2000/svg"
   xmlns="http://www.w3.org/2000/svg"
   xmlns:sodipodi="http://sodipodi.sourceforge.net/DTD/sodipodi-0.dtd"
   xmlns:inkscape="http://www.inkscape.org/namespaces/inkscape"
   version="1.1"
   id="Слой_1"
   x="0px"
   y="0px"
   width="62.6px"
   height="62.6px"
   viewBox="0 0 62.6 62.6"
   enable-background="new 0 0 62.6 62.6"
   xml:space="preserve"
   sodipodi:docname="metro_logo_header.svg"
   inkscape:version="0.92.4 (5da689c313, 2019-01-14)"><metadata
   id="metadata9"><rdf:RDF><cc:Work
       rdf:about=""><dc:format>image/svg+xml</dc:format><dc:type
         rdf:resource="http://purl.org/dc/dcmitype/StillImage" /><dc:title></dc:title></cc:Work></rdf:RDF></metadata><defs
   id="defs7" /><sodipodi:namedview
   pagecolor="#ffffff"
   bordercolor="#666666"
   borderopacity="1"
   objecttolerance="10"
   gridtolerance="10"
   guidetolerance="10"
   inkscape:pageopacity="0"
   inkscape:pageshadow="2"
   inkscape:window-width="1600"
   inkscape:window-height="848"
   id="namedview5"
   showgrid="false"
   inkscape:zoom="3.7699681"
   inkscape:cx="31.299999"
   inkscape:cy="31.299999"
   inkscape:window-x="-8"
   inkscape:window-y="-8"
   inkscape:window-maximized="1"
   inkscape:current-layer="Слой_1" />
<path
   fill="#fff"
   d="M31.3,0C14,0,0,14,0,31.3s14,31.3,31.3,31.3s31.3-14,31.3-31.3S48.5,0,31.3,0z M31.3,6.5  c13.7,0,24.8,11.1,24.8,24.8c0,1.4-0.1,2.7-0.3,4L41.8,21.4L31.3,31.9L20.8,21.4L6.8,35.3c-0.2-1.3-0.3-2.7-0.3-4  C6.5,17.6,17.6,6.5,31.3,6.5z M31.3,56.1c-9.7,0-18.1-5.6-22.2-13.8l11.7-11.7l10.5,10.5l10.5-10.5l11.7,11.7  C49.4,50.4,41,56.1,31.3,56.1z"
   id="path2"
   style="fill:#ffffff" />
</svg>