<?xml version="1.0" encoding="utf-8"?>
<!-- Generator: Adobe Illustrator 23.0.0, SVG Export Plug-In . SVG Version: 6.00 Build 0)  -->
<svg version="1.1" id="Слой_1" xmlns="http://www.w3.org/2000/svg" xmlns:xlink="http://www.w3.org/1999/xlink" x="0px" y="0px"
	 width="86.4px" height="86.4px" viewBox="0 0 86.4 86.4" enable-background="new 0 0 86.4 86.4" xml:space="preserve">
<circle fill="#FFBC00" cx="43.2" cy="43.2" r="43.2"/>
<path fill="#FFFFFF" d="M17.2,50.9c0,0-3.6-0.5-2,2.6c1.7,3.1,2.4,5.8,6.8,7.2s23,4.7,35.2,1.9s12.1-4.6,12.3-6
	c0.2-1.4,4-7.6-0.6-5.5c-4.6,2-20.7,2.8-28.1,2.9S17.2,50.9,17.2,50.9z"/>
<path fill="none" stroke="#000000" stroke-width="2.8" stroke-miterlimit="10" d="M13.6,49.2c0,0,7.4,5.3,28.1,5.3
	s29.9-5.3,29.9-5.3s-3.7,27.5-28.4,27.5S13.6,49.2,13.6,49.2z"/>
<path fill="none" stroke="#000000" stroke-width="2.8" stroke-miterlimit="10" d="M16.6,58.2c0,0,9.3,6.1,26.6,6.1s25.3-5,25.3-5"/>
<path d="M19.9,59.9c0,0-1.9,1.3,0,3.7c1.9,2.3,8.9,13.2,21.8,12.7s20.6-6.5,23.2-10.5c2.5-4.1,0.9-6.1-1.5-4.3S47,65.3,37.1,63.8
	C27.2,62.3,19.9,59.9,19.9,59.9z"/>
<path id="XMLID_18_" fill="#F43737" d="M28.8,17.3c-2.7,0.6-4.8,2.4-5.8,4.7c-1.9-1.6-4.6-2.4-7.3-1.8c-4.5,1-7.4,5.5-6.4,10.1
	c2.3,10.2,18.4,13.1,18.4,13.1S41.2,34,38.9,23.7C37.9,19.1,33.4,16.3,28.8,17.3z"/>
<path id="XMLID_1_" fill="#F43737" d="M47,23.7C44.7,34,58.2,43.3,58.2,43.3s16.1-2.9,18.4-13.1c1-4.5-1.9-9.1-6.4-10.1
	c-2.7-0.6-5.3,0.1-7.3,1.8c-1.1-2.3-3.2-4.1-5.8-4.7C52.5,16.3,48,19.1,47,23.7z"/>
</svg>
