<?xml version="1.0" encoding="utf-8"?>
<!-- Generator: Adobe Illustrator 21.1.0, SVG Export Plug-In . SVG Version: 6.00 Build 0)  -->
<svg version="1.1" id="Layer_1" xmlns="http://www.w3.org/2000/svg" xmlns:xlink="http://www.w3.org/1999/xlink" x="0px" y="0px"
	 width="153px" height="39.6px" viewBox="0 0 153 39.6" enable-background="new 0 0 153 39.6" xml:space="preserve">
<g>
	<path fill="#F50D03" d="M19.8,0C8.9,0,0,8.9,0,19.8s8.9,19.8,19.8,19.8c10.9,0,19.8-8.9,19.8-19.8S30.8,0,19.8,0z M24,23.8
		c0,0.1-0.1,0.1-0.1,0.2L17,30.8c0,0,0,0,0,0c-0.2,0.2-0.4,0.3-0.7,0.3c-0.5,0-1-0.4-1-1c0-0.3,0.1-0.5,0.3-0.7c0,0,0,0,0,0l6.8-6.8
		c0,0,0,0,0.1-0.1c0.2-0.1,0.4-0.2,0.6-0.2c0.5,0,1,0.4,1,1C24.2,23.5,24.1,23.6,24,23.8z M17.4,20.8l3.4-3.4c0.4-0.4,1-0.4,1.4,0
		c0.4,0.4,0.4,1,0,1.4l-3.4,3.4c-0.2,0.2-0.4,0.3-0.7,0.3c-0.2,0-0.5-0.1-0.7-0.3C17,21.8,17,21.2,17.4,20.8z M24,10.1
		c0,0.1-0.1,0.1-0.1,0.2L17,17.1c0,0,0,0,0,0c-0.2,0.2-0.4,0.3-0.7,0.3c-0.5,0-1-0.4-1-1c0-0.3,0.1-0.5,0.3-0.7c0,0,0,0,0,0l6.8-6.8
		c0,0,0,0,0.1-0.1c0.2-0.1,0.4-0.2,0.6-0.2c0.5,0,1,0.4,1,1C24.2,9.7,24.1,9.9,24,10.1z"/>
	<path d="M68.3,16.4h-3.5c-0.1-1.7-1.2-2.5-3.2-2.5c-0.9,0-1.5,0.2-2,0.5c-0.5,0.3-0.7,0.8-0.7,1.4c0,0.2,0,0.4,0.1,0.5
		c0.1,0.2,0.2,0.3,0.4,0.4c0.2,0.1,0.3,0.2,0.5,0.3c0.2,0.1,0.4,0.2,0.8,0.3c0.3,0.1,0.6,0.2,0.9,0.3c0.3,0.1,0.7,0.2,1.2,0.3
		c0.5,0.1,0.9,0.2,1.3,0.4c1.7,0.5,2.9,1.1,3.7,1.8c0.8,0.7,1.2,1.7,1.2,3.1c0,1-0.2,1.8-0.6,2.5c-0.4,0.7-0.9,1.3-1.6,1.7
		c-0.7,0.4-1.4,0.7-2.2,0.9c-0.8,0.2-1.6,0.3-2.5,0.3c-2.3,0-4.1-0.5-5.4-1.6c-1.3-1-1.9-2.5-2-4.4h3.7c0.1,2.1,1.3,3.2,3.8,3.2
		c1,0,1.7-0.2,2.3-0.6c0.6-0.4,0.8-1,0.8-1.6c0-0.6-0.3-1-0.8-1.3c-0.5-0.3-1.6-0.6-3.2-1.1c-0.3-0.1-0.5-0.1-0.6-0.2
		c-0.6-0.2-1-0.3-1.2-0.3c-0.2-0.1-0.6-0.2-1.1-0.4c-0.5-0.2-0.8-0.3-1.1-0.5c-0.2-0.1-0.5-0.3-0.8-0.6c-0.3-0.3-0.6-0.5-0.7-0.8
		c-0.1-0.3-0.3-0.6-0.4-1c-0.1-0.4-0.2-0.8-0.2-1.3c0-1.5,0.6-2.8,1.8-3.7c1.2-0.9,2.8-1.4,4.7-1.4c1.9,0,3.4,0.4,4.6,1.3
		C67.6,13.2,68.2,14.6,68.3,16.4z"/>
	<path d="M83.5,11c2.5,0,4.5,0.8,6,2.5c1.5,1.6,2.3,3.8,2.3,6.4c0,2.6-0.8,4.8-2.3,6.4c-1.5,1.6-3.5,2.4-6,2.4c-2.5,0-4.5-0.8-6-2.4
		c-1.5-1.6-2.3-3.7-2.3-6.4c0-2.7,0.8-4.8,2.3-6.4C79,11.8,81,11,83.5,11z M83.5,14c-1.4,0-2.5,0.5-3.3,1.6c-0.8,1-1.2,2.4-1.2,4.2
		c0,1.8,0.4,3.2,1.2,4.3c0.8,1,1.9,1.5,3.4,1.6c1.4,0,2.5-0.5,3.3-1.6c0.8-1,1.2-2.5,1.2-4.3c0-1.8-0.4-3.2-1.2-4.2
		C86,14.5,84.9,14,83.5,14z"/>
	<path d="M111,25v3.2H99.1V11.4h3.7V25H111z"/>
	<path d="M126.2,11.3l6.4,16.9h-3.9l-1.3-3.8h-6.3l-1.4,3.8H116l6.4-16.9H126.2z M126.5,21.8l-2.2-6.3l-2.2,6.3H126.5z"/>
	<path d="M151.4,19.7c0.4-0.3,0.7-0.6,0.9-1c0.1-0.1,0.2-0.3,0.2-0.4c0,0,0-0.1,0-0.1c0,0,0-0.1,0.1-0.1c0-0.1,0.1-0.2,0.1-0.2
		c0,0,0,0,0,0c0-0.1,0.1-0.2,0.1-0.3c0,0,0,0,0-0.1c0-0.1,0-0.1,0-0.2c0.1-0.4,0.1-0.7,0.1-1.1c0-1.6-0.5-2.8-1.6-3.6
		c-1.1-0.8-2.4-1.2-4.1-1.2h-8.4v16.9h3.7v-6.6h1.7c0.1,0,1.6,0,1.6,0l0,0l3.2,6.6h3.9l-3.7-7.3C150.2,20.6,150.9,20.2,151.4,19.7z
		 M142.6,14.3h3.7c0.9,0,1.7,0.2,2.3,0.5c0.6,0.3,0.8,0.9,0.8,1.8c0,0.9-0.3,1.6-0.9,1.9c-0.6,0.3-1.4,0.5-2.4,0.5h-3.5V14.3z"/>
</g>
</svg>
