<?xml version="1.0" encoding="utf-8"?>
<!-- Generator: Adobe Illustrator 23.0.0, SVG Export Plug-In . SVG Version: 6.00 Build 0)  -->
<svg version="1.1" id="Слой_1" xmlns="http://www.w3.org/2000/svg" xmlns:xlink="http://www.w3.org/1999/xlink" x="0px" y="0px"
	 width="128.1px" height="82.3px" viewBox="0 0 128.1 82.3" enable-background="new 0 0 128.1 82.3" xml:space="preserve">
<path fill="#FFBC00" d="M8.7,29.2c0,0,7,2.2,12.7,2.6c5.7,0.4,9.4-2,10.5-6.8s3.1-9.4,18.3-12.9S70.3,6.9,75.3,1.9s11.6,0.4,9.2,8.7
	c-2.4,8.3-12.9,12-12.9,12h47.8c0,0,8.7,0.4,8.7,6.3s-6.1,7.4-14.2,7.4s-33.8,0-33.8,0s2.4,2.4,2.6,7.4s-3.3,5.9-2.6,9
	s0.2,10-3.7,17.7c-3.9,7.6-8.1,11.8-22.7,11.8s-18.1-8.6-25.1-8.5C15.9,74,9.4,79.4,9.4,79.4S0,68.5,0,53S8.7,29.2,8.7,29.2z"/>
</svg>
