<?xml version="1.0" encoding="utf-8"?>
<!-- Generator: Adobe Illustrator 23.0.0, SVG Export Plug-In . SVG Version: 6.00 Build 0)  -->
<svg version="1.1" id="Слой_1" xmlns="http://www.w3.org/2000/svg" xmlns:xlink="http://www.w3.org/1999/xlink" x="0px" y="0px"
     width="62.6px" height="62.6px" viewBox="0 0 62.6 62.6" enable-background="new 0 0 62.6 62.6" xml:space="preserve">
<path fill="#0051ff" d="M31.3,0C14,0,0,14,0,31.3s14,31.3,31.3,31.3s31.3-14,31.3-31.3S48.5,0,31.3,0z M31.3,6.5
	c13.7,0,24.8,11.1,24.8,24.8c0,1.4-0.1,2.7-0.3,4L41.8,21.4L31.3,31.9L20.8,21.4L6.8,35.3c-0.2-1.3-0.3-2.7-0.3-4
	C6.5,17.6,17.6,6.5,31.3,6.5z M31.3,56.1c-9.7,0-18.1-5.6-22.2-13.8l11.7-11.7l10.5,10.5l10.5-10.5l11.7,11.7
	C49.4,50.4,41,56.1,31.3,56.1z"/>
</svg>
