<svg version="1.1" id="Слой_1" xmlns="http://www.w3.org/2000/svg" xmlns:xlink="http://www.w3.org/1999/xlink"
         x="0px" y="0px"
         width="600px" height="370px" viewBox="0 0 109.4 67.4" enable-background="new 0 0 109.4 67.4"
         xml:space="preserve">
<rect x="54.6" y="-13.9" transform="matrix(0.7071 -0.7072 0.7072 0.7071 -7.8055 48.5386)" fill="#636363" width="0.2"
      height="95.1"/>
        <rect x="45.4" y="-13.9" transform="matrix(0.7071 -0.7071 0.7071 0.7071 -10.4999 42.034)" fill="#636363"
              width="0.2" height="95.1"/>
        <rect x="75.6" y="-13.9" transform="matrix(0.7071 -0.7071 0.7071 0.7071 -1.6418 63.4176)" fill="#636363"
              width="0.2" height="95.1"/>
        <rect x="66.4" y="-13.9" transform="matrix(0.7071 -0.7072 0.7072 0.7071 -4.3359 56.9139)" fill="#636363"
              width="0.2" height="95.1"/>
        <rect x="7.1" y="33.6" transform="matrix(0.7071 -0.7071 0.7071 0.7071 -7.8031 48.5424)" fill="#636363"
              width="95.1" height="0.2"/>
        <rect x="16.3" y="33.6" transform="matrix(0.7071 -0.7071 0.7071 0.7071 -5.1092 55.0462)" fill="#636363"
              width="95.1" height="0.2"/>
        <rect x="-13.9" y="33.6" transform="matrix(0.7071 -0.7071 0.7071 0.7071 -13.9539 33.6932)" fill="#636363"
              width="95.1" height="0.2"/>
        <rect x="-4.7" y="33.6" transform="matrix(0.7071 -0.7071 0.7071 0.7071 -11.2599 40.197)" fill="#636363"
              width="95.1" height="0.2"/>
        <g>
	<path d="M54.7,1.8c-17.2,0-31.3,14-31.3,31.3s14,31.3,31.3,31.3S86,50.3,86,33.1S71.9,1.8,54.7,1.8z M54.7,8.3
		c13.7,0,24.8,11.1,24.8,24.8c0,1.4-0.1,2.7-0.3,4L65.2,23.2L54.7,33.7L44.2,23.2L30.3,37.1c-0.2-1.3-0.3-2.7-0.3-4
		C29.9,19.4,41,8.3,54.7,8.3z M54.7,57.9c-9.7,0-18.1-5.6-22.2-13.8l11.7-11.7l10.5,10.5l10.5-10.5l11.7,11.7
		C72.8,52.2,64.4,57.9,54.7,57.9z"/>
            <path fill="#0051FF" d="M54.7,64.5c-17.3,0-31.4-14.1-31.4-31.4S37.4,1.7,54.7,1.7s31.4,14.1,31.4,31.4S72,64.5,54.7,64.5z
		 M54.7,1.9c-17.2,0-31.2,14-31.2,31.2s14,31.2,31.2,31.2c17.2,0,31.2-14,31.2-31.2S71.9,1.9,54.7,1.9z M54.7,58
		c-9.5,0-18-5.3-22.3-13.8l0-0.1l0.1-0.1l11.8-11.8l0.1,0.1l10.4,10.4l10.5-10.5l0.1,0.1L77,44l0,0.1C72.8,52.7,64.2,58,54.7,58z
		 M32.6,44.1c4.2,8.4,12.7,13.6,22.1,13.6c9.4,0,17.8-5.2,22.1-13.7L65.2,32.5L54.7,43.1L54.6,43L44.2,32.6L32.6,44.1z M30.2,37.4
		l0-0.2c-0.2-1.4-0.3-2.7-0.3-4.1C29.8,19.4,41,8.2,54.7,8.2s24.9,11.2,24.9,24.9c0,1.3-0.1,2.7-0.3,4l0,0.2l-14-14L54.7,33.9
		l-0.1-0.1L44.2,23.4L30.2,37.4z M54.7,8.4C41.1,8.4,30,19.5,30,33.1c0,1.3,0.1,2.5,0.3,3.8L44.2,23l0.1,0.1l10.4,10.4L65.2,23
		l0.1,0.1l13.8,13.8c0.2-1.3,0.3-2.5,0.3-3.8C79.4,19.5,68.3,8.4,54.7,8.4z"/>
</g>
</svg>
