<?xml version="1.0" encoding="utf-8"?>
<!-- Generator: Adobe Illustrator 23.0.0, SVG Export Plug-In . SVG Version: 6.00 Build 0)  -->
<svg version="1.1" id="Слой_1" xmlns="http://www.w3.org/2000/svg" xmlns:xlink="http://www.w3.org/1999/xlink" x="0px" y="0px"
	 width="70.9px" height="70.9px" viewBox="0 0 70.9 70.9" enable-background="new 0 0 70.9 70.9" xml:space="preserve">
<rect x="24" y="6.7" fill="#FFFFFF" width="26" height="52"/>
<path fill="#F50D03" d="M35.5,0C15.9,0,0,15.9,0,35.5c0,19.6,15.9,35.5,35.5,35.5c19.6,0,35.5-15.9,35.5-35.5
	C70.9,15.9,55.1,0,35.5,0z M43,42.6c-0.1,0.1-0.1,0.2-0.2,0.3L30.5,55.1c0,0-0.1,0-0.1,0.1c-0.3,0.3-0.7,0.5-1.2,0.5
	c-1,0-1.7-0.8-1.7-1.7c0-0.5,0.2-0.9,0.5-1.2c0,0,0,0,0.1-0.1l12.2-12.2c0,0,0.1-0.1,0.1-0.1c0.3-0.3,0.7-0.4,1.1-0.4
	c1,0,1.7,0.8,1.7,1.7C43.3,42,43.2,42.3,43,42.6z M31.1,37.3l6.1-6.1c0.7-0.7,1.8-0.7,2.5,0c0.7,0.7,0.7,1.8-0.1,2.5l-6.1,6.1
	c-0.3,0.3-0.8,0.5-1.2,0.5c-0.4,0-0.9-0.2-1.2-0.5C30.5,39.1,30.5,38,31.1,37.3z M43,18c-0.1,0.1-0.1,0.2-0.2,0.3L30.5,30.6
	c0,0-0.1,0-0.1,0.1c-0.3,0.3-0.7,0.5-1.2,0.5c-1,0-1.7-0.8-1.7-1.7c0-0.5,0.2-0.9,0.5-1.2c0,0,0,0,0.1-0.1l12.2-12.2
	c0,0,0.1-0.1,0.1-0.1c0.3-0.3,0.7-0.4,1.1-0.4c1,0,1.7,0.8,1.7,1.7C43.3,17.4,43.2,17.8,43,18z"/>
</svg>
